<?xml version="1.0" standalone="no"?>
<!DOCTYPE svg PUBLIC "-//W3C//DTD SVG 20010904//EN"
 "http://www.w3.org/TR/2001/REC-SVG-20010904/DTD/svg10.dtd">
<svg version="1.0" xmlns="http://www.w3.org/2000/svg"
 width="260.000000pt" height="260.000000pt" viewBox="0 0 260.000000 260.000000"
 preserveAspectRatio="xMidYMid meet">
<metadata>
Created by potrace 1.11, written by Peter Selinger 2001-2013
</metadata>
<g transform="translate(0.000000,260.000000) scale(0.100000,-0.100000)"
fill="#000000" stroke="none">
<path d="M0 1300 l0 -1300 1300 0 1300 0 0 1300 0 1300 -1300 0 -1300 0 0
-1300z m1659 860 c55 -28 86 -69 122 -165 l32 -84 162 -3 c160 -3 162 -3 211
-33 54 -34 108 -105 124 -166 7 -25 10 -220 8 -561 -3 -520 -3 -523 -25 -565
-28 -51 -82 -105 -131 -130 -35 -17 -82 -18 -857 -18 l-820 0 -41 22 c-22 12
-57 40 -78 63 -74 82 -71 53 -71 650 0 524 0 536 21 581 27 57 84 115 138 140
34 15 66 19 192 19 l152 0 36 93 c37 96 54 119 116 156 34 20 48 21 353 21
296 0 320 -1 356 -20z"/>
<path d="M1175 1626 c-179 -57 -312 -211 -334 -386 -19 -150 24 -284 125 -391
96 -99 208 -149 339 -149 128 0 241 48 336 143 170 170 182 444 27 631 -50 61
-143 124 -215 146 -75 23 -214 26 -278 6z m251 -176 c58 -25 121 -85 152 -144
22 -43 27 -64 27 -131 0 -68 -4 -89 -28 -137 -30 -61 -74 -105 -140 -140 -61
-33 -203 -33 -265 0 -58 31 -114 88 -143 148 -32 66 -33 177 -2 245 69 153
249 224 399 159z"/>
</g>
</svg>
